<svg width="32" height="32" viewBox="0 0 32 32" xmlns="http://www.w3.org/2000/svg">
  <defs>
    <linearGradient id="bg" x1="0%" y1="0%" x2="100%" y2="100%">
      <stop offset="0%" style="stop-color:#6366f1"/>
      <stop offset="100%" style="stop-color:#a855f7"/>
    </linearGradient>
  </defs>
  <rect width="32" height="32" rx="8" fill="url(#bg)"/>
  <rect x="10" y="9" width="14" height="3" rx="1.5" fill="white" transform="rotate(45, 17, 10.5)"/>
  <polygon points="14,8 15,11 18,11 15.8,13 16.6,16 14,14.2 11.4,16 12.2,13 10,11 13,11" fill="#f59e0b"/>
  <polygon points="22,17 22.8,19.5 25.5,19.5 23.3,21 24,23 22,21.5 20,23 20.7,21 18.5,19.5 21.2,19.5" fill="#f59e0b" transform="scale(0.8) translate(5,3)"/>
</svg>
